HIERARCHY
ROOT run
{
	OFFSET 0.000000 0.000000 0.000000 
	CHANNELS 6 Xposition Yposition Zposition Xrotation Yrotation Zrotation
	JOINT Spine_01
	{
		OFFSET 0.113846 125.062401 -47.579815 
		CHANNELS 3 Xrotation Yrotation Zrotation
		JOINT Spine_02
		{
			OFFSET -1.089942 -4.358421 28.542002 
			CHANNELS 3 Xrotation Yrotation Zrotation
			JOINT Spine_03
			{
				OFFSET -0.377767 -1.393097 36.826138 
				CHANNELS 3 Xrotation Yrotation Zrotation
				JOINT Spine_04
				{
					OFFSET 1.351514 3.546082 39.138130 
					CHANNELS 3 Xrotation Yrotation Zrotation
					JOINT Neck_Base
					{
						OFFSET 2.360031 2.774048 29.430767 
						CHANNELS 3 Xrotation Yrotation Zrotation
						JOINT Neck_01
						{
							OFFSET -0.144629 18.460693 8.224968 
							CHANNELS 3 Xrotation Yrotation Zrotation
							JOINT Neck_02
							{
								OFFSET -0.897558 16.438629 14.059761 
								CHANNELS 3 Xrotation Yrotation Zrotation
								JOINT Head
								{
									OFFSET -1.590823 16.111664 14.845757 
									CHANNELS 3 Xrotation Yrotation Zrotation
									JOINT L_Ear
									{
										OFFSET 7.029927 15.890244 10.992287 
										CHANNELS 3 Xrotation Yrotation Zrotation
										End Site
										{
											OFFSET 6.001576 10.244965 -11.995987 
										}
									}
									JOINT R_Ear
									{
										OFFSET -8.801515 15.228439 10.647987 
										CHANNELS 3 Xrotation Yrotation Zrotation
										End Site
										{
											OFFSET 3.879196 -7.055588 14.834167 
										}
									}
									JOINT Jaw
									{
										OFFSET 0.038255 -5.091797 8.036140 
										CHANNELS 3 Xrotation Yrotation Zrotation
										End Site
										{
											OFFSET -0.699346 16.861893 -0.264236 
										}
									}
								}
							}
						}
					}
					JOINT R_Scapula
					{
						OFFSET -6.095381 17.317810 8.671352 
						CHANNELS 3 Xrotation Yrotation Zrotation
						JOINT R_Shoulder
						{
							OFFSET -1.115130 -31.803375 27.376656 
							CHANNELS 3 Xrotation Yrotation Zrotation
							JOINT R_Front_UpperLeg
							{
								OFFSET -4.057820 -32.021416 -8.177231 
								CHANNELS 3 Xrotation Yrotation Zrotation
								JOINT R_Front_LowerLeg
								{
									OFFSET 1.553888 -30.822193 25.215584 
									CHANNELS 3 Xrotation Yrotation Zrotation
									JOINT R_Front_Ankle
									{
										OFFSET 1.188602 -27.449919 13.561226 
										CHANNELS 3 Xrotation Yrotation Zrotation
										JOINT R_Front_Hoof
										{
											OFFSET 0.000004 -9.177123 4.105614 
											CHANNELS 3 Xrotation Yrotation Zrotation
											End Site
											{
												OFFSET -0.000003 -0.000004 -10.053635 
											}
										}
									}
								}
							}
						}
					}
					JOINT L_Scapula
					{
						OFFSET 7.373911 17.328003 7.590313 
						CHANNELS 3 Xrotation Yrotation Zrotation
						JOINT L_Shoulder
						{
							OFFSET 4.706675 -39.123550 14.468903 
							CHANNELS 3 Xrotation Yrotation Zrotation
							JOINT L_Front_UpperLeg
							{
								OFFSET -0.569906 -18.276909 -27.826672 
								CHANNELS 3 Xrotation Yrotation Zrotation
								JOINT L_Front_LowerLeg
								{
									OFFSET -0.478388 -36.470100 -16.060204 
									CHANNELS 3 Xrotation Yrotation Zrotation
									JOINT L_Front_Ankle
									{
										OFFSET -0.280628 -23.263634 -19.938202 
										CHANNELS 3 Xrotation Yrotation Zrotation
										JOINT L_Front_Hoof
										{
											OFFSET 0.004587 -9.384029 -3.607539 
											CHANNELS 3 Xrotation Yrotation Zrotation
											End Site
											{
												OFFSET 0.011364 -7.125093 7.092755 
											}
										}
									}
								}
							}
						}
					}
				}
			}
		}
		JOINT L_Hip
		{
			OFFSET 14.989113 -6.453613 -12.736771 
			CHANNELS 3 Xrotation Yrotation Zrotation
			JOINT L_Back_UpperLeg
			{
				OFFSET 0.039682 -35.143867 -4.992908 
				CHANNELS 3 Xrotation Yrotation Zrotation
				JOINT L_Back_LowerLeg
				{
					OFFSET -0.453015 -19.382568 -40.516190 
					CHANNELS 3 Xrotation Yrotation Zrotation
					JOINT L_Back_Ankle
					{
						OFFSET 5.507794 -34.576538 9.141853 
						CHANNELS 3 Xrotation Yrotation Zrotation
						JOINT L_Back_Hoof
						{
							OFFSET 0.484327 -7.440332 -8.983963 
							CHANNELS 3 Xrotation Yrotation Zrotation
							End Site
							{
								OFFSET 2.391207 -11.236143 -2.082306 
							}
						}
					}
				}
			}
		}
		JOINT R_Hip
		{
			OFFSET -14.784759 -6.453499 -12.973389 
			CHANNELS 3 Xrotation Yrotation Zrotation
			JOINT R_Back_UpperLeg
			{
				OFFSET 0.117544 -32.269318 -14.788715 
				CHANNELS 3 Xrotation Yrotation Zrotation
				JOINT R_Back_LowerLeg
				{
					OFFSET 0.443617 -26.906349 -35.962433 
					CHANNELS 3 Xrotation Yrotation Zrotation
					JOINT R_Back_Ankle
					{
						OFFSET 0.017659 -33.290115 -14.185234 
						CHANNELS 3 Xrotation Yrotation Zrotation
						JOINT R_Back_Hoof
						{
							OFFSET -0.346885 -9.917637 -6.150139 
							CHANNELS 3 Xrotation Yrotation Zrotation
							End Site
							{
								OFFSET 2.106386 8.907843 -7.246902 
							}
						}
					}
				}
			}
		}
		JOINT Tail_01
		{
			OFFSET 0.180665 11.804451 -22.730854 
			CHANNELS 3 Xrotation Yrotation Zrotation
			JOINT Tail_02
			{
				OFFSET 2.602429 -15.155418 -15.859962 
				CHANNELS 3 Xrotation Yrotation Zrotation
				JOINT Tail_03
				{
					OFFSET 0.893097 -20.299004 -11.505386 
					CHANNELS 3 Xrotation Yrotation Zrotation
					JOINT Tail_04
					{
						OFFSET -0.929188 -21.081474 -9.701576 
						CHANNELS 3 Xrotation Yrotation Zrotation
						JOINT Tail_05
						{
							OFFSET -3.146472 -19.293648 -12.801300 
							CHANNELS 3 Xrotation Yrotation Zrotation
							End Site
							{
								OFFSET 2.170052 12.616272 -19.548370 
							}
						}
					}
				}
			}
		}
	}
}
MOTION
Frames: 6
Frame Time: 0.033333
0.000000 0.000000 0.000000 0.000004 0.000000 -0.000000 0.000023 0.000002 -0.000018 0.000001 -0.000000 -0.000002 -0.000010 -0.000001 0.000007 0.000003 -0.000001 0.000015 -0.000002 -0.000002 -0.000022 0.000005 0.000001 -0.000003 0.000007 -0.000001 0.000002 -0.000023 0.000029 0.000011 0.000005 -0.000031 -0.000015 0.000007 -0.000025 -0.000007 -0.000008 -0.000029 -0.000009 -0.000012 0.000003 -0.000020 0.000021 -0.000004 -0.000003 -0.000007 -0.000004 0.000003 -0.000026 -0.000001 -0.000001 -0.000010 0.000000 0.000003 0.000026 -0.000088 0.000100 -0.000002 -0.000000 -0.000023 0.000005 -0.000004 0.000000 0.000017 0.000004 -0.000004 -0.000014 0.000025 0.000011 0.000009 -0.000002 0.000002 0.000004 0.000077 0.000030 0.000002 -0.000001 0.000001 0.000007 0.000003 -0.000001 0.000003 0.000000 -0.000005 -0.000032 0.000009 -0.000016 0.000031 -0.000010 0.000012 -0.000010 -0.000001 -0.000001 -0.000020 -0.000000 -0.000001 0.000006 0.000000 -0.000002 0.000017 0.000005 -0.000007 -0.000009 -0.000004 0.000008 -0.000021 0.000000 -0.000010 0.000014 -0.000001 0.000013 0.000008 0.000003 -0.000001 -0.000029 0.000008 0.000009 0.000048 0.000078 0.000053 
0.000000 0.000000 0.000000 0.000004 0.000000 -0.000000 -0.607023 -1.183746 1.728573 0.782480 1.001872 -0.710821 0.886772 0.084231 -1.032851 0.279116 -0.386747 -0.061601 -2.021362 0.381777 -0.045242 -0.999931 0.256560 -0.000293 -0.461412 0.050890 -0.055885 1.612163 -0.174725 0.078070 1.081316 3.693207 -0.661249 1.868057 2.687098 2.049611 -0.000006 -0.000029 -0.000009 2.265558 -0.122890 -0.473906 2.700927 -0.290812 -0.215033 3.970716 1.984721 0.660671 -12.974879 -0.449661 0.234935 -2.130785 -0.553708 -0.513135 4.834714 -0.000082 0.000106 9.540271 0.761565 -0.704741 -7.849339 -0.753016 0.577973 -0.995439 1.391599 0.672668 5.439312 -0.076618 0.017426 5.198162 -1.239965 -1.215664 0.000001 0.000077 0.000028 -17.619370 0.021360 -0.137843 14.937308 0.168878 -3.819306 -12.928693 -1.893502 0.793636 4.210532 -2.734729 12.232100 -1.616897 -0.390855 0.228311 9.292845 0.005977 0.073537 -18.107515 2.368612 -4.987650 10.542284 -0.055775 0.190429 10.068957 -0.904721 4.619318 20.860298 -1.958446 3.316183 -1.585213 2.052579 -0.785506 -2.470152 -1.044112 0.972378 -2.611592 -0.825905 1.530124 -5.384995 -0.910606 2.369764 0.000053 0.000078 0.000052 
0.000000 0.000000 0.000000 0.000004 0.000000 -0.000000 -2.118074 -2.362685 3.212190 2.142964 2.015508 -1.201432 2.073619 -0.213852 -2.021099 0.458793 -1.190920 -0.144831 -3.612310 1.408218 -0.164031 -2.076959 0.832798 -0.124856 -1.195650 0.319990 -0.184858 2.473199 -0.751171 0.285714 1.694610 9.095573 0.236730 5.257279 4.473111 3.874935 -0.000006 -0.000029 -0.000009 2.167204 0.270007 -1.388896 18.428816 -2.159088 -1.178066 6.722324 7.281453 1.274846 -12.974875 -0.449661 0.234935 -30.825453 -2.077383 -1.957107 13.813418 -0.000072 0.000115 13.701406 1.065143 -1.066198 -12.733397 -1.259107 0.883808 -20.344019 4.142255 1.233289 44.260521 -0.527889 0.332640 11.792807 -3.445941 -0.817557 -0.000021 0.000060 0.000008 -28.579029 0.055482 -0.217845 23.877890 -2.657963 -12.197445 -16.657358 -2.468433 0.941471 -13.580676 -13.829473 19.016743 -5.780508 -1.427026 0.765387 11.958016 0.009884 0.094356 -21.597542 4.643508 -8.792945 11.155549 -0.057930 0.201786 16.373085 -0.706230 7.077915 26.547985 -2.270945 4.320998 0.293693 5.421532 -1.850935 -5.531001 -2.093638 1.761777 -5.114883 -1.630178 2.868457 -9.778638 -1.965398 4.460054 0.000053 0.000079 0.000053 
0.000000 0.000000 0.000000 0.000004 0.000000 -0.000000 -4.114500 -3.451466 3.721493 3.711094 2.985663 -1.237669 3.370253 -0.677552 -2.483106 0.591731 -2.259264 -0.226711 -4.751982 2.789581 -0.295481 -3.107485 1.598596 -0.331299 -2.030767 0.660182 -0.421923 2.724739 -1.542649 0.571600 0.721626 13.022190 1.207410 10.411789 4.520272 4.686366 -0.000006 -0.000029 -0.000009 13.639774 -1.472536 -1.413240 10.136750 -1.140636 -0.734040 20.447687 10.343036 -2.760170 -12.974878 -0.449660 0.234934 -53.246059 -2.808613 -3.676081 18.648106 -0.000065 0.000119 13.092135 1.026742 -1.033036 -13.511695 -1.342104 0.928530 -25.798477 7.656247 0.538803 56.805058 -0.616693 0.490264 28.404432 -4.249929 1.580264 -0.000030 0.000133 0.000059 -35.228817 0.083397 -0.262689 20.942905 -3.098109 -14.276523 -6.807664 -0.974448 0.471059 -38.964905 -24.218937 14.889169 -11.462369 -2.901351 1.375758 2.834973 0.000557 0.022527 -1.382352 4.072990 -12.349169 -14.330927 0.129637 -0.236189 35.682796 -0.029637 9.234997 29.253181 -2.384162 4.808372 4.906051 9.006085 -3.168419 -8.877660 -3.120885 2.375856 -7.471120 -2.330538 3.911645 -12.505981 -2.742851 5.778220 0.000055 0.000078 0.000053 
0.000000 0.000000 0.000000 0.000004 0.000000 -0.000000 -6.219183 -4.218401 2.668747 5.106918 3.804876 -0.631633 4.619469 -1.103862 -2.029937 0.725310 -3.371433 -0.282064 -5.410785 4.210243 -0.419756 -3.955962 2.372443 -0.605944 -2.800730 0.965228 -0.755846 2.495454 -2.333221 0.871446 -1.871721 14.873029 2.194005 15.501613 3.285713 4.480021 -0.000007 -0.000028 -0.000009 22.163855 -2.626730 -1.595301 4.408309 -0.479807 -0.343841 30.049335 12.077227 -6.223939 -12.974880 -0.449661 0.234935 -36.639828 -5.186965 -3.025712 9.324018 -0.000077 0.000110 8.812868 0.723529 -0.702639 -11.248213 -1.102455 0.795372 -33.608849 11.591425 0.273661 66.385025 -0.660176 0.621526 40.003918 -3.455772 3.591925 -0.000020 0.000014 0.000011 -38.664268 0.099807 -0.284507 7.482325 -2.108804 -11.116224 7.730932 1.028439 -0.669650 -52.796764 -23.709591 8.559685 -17.645927 -4.567658 1.871731 -16.535362 0.018829 -0.129605 24.489574 3.326576 -12.505341 -35.866867 0.423322 -0.512998 53.578690 0.624578 9.594097 29.939945 -2.409229 4.932881 11.441794 12.036444 -4.682171 -11.993294 -4.236445 3.024874 -9.870242 -3.033950 4.858242 -14.279375 -3.348830 6.708148 0.000053 0.000077 0.000054 
0.000000 0.000000 0.000000 0.000004 0.000000 -0.000000 -7.966564 -4.491149 0.499822 5.935455 4.331728 0.400675 5.631899 -1.365237 -0.880893 0.943803 -4.240600 -0.302001 -5.552618 5.328632 -0.535637 -4.471396 2.927799 -0.950859 -3.348428 1.178808 -1.122706 1.891963 -2.894079 1.113403 -4.998427 16.142998 3.826310 17.996847 2.123819 3.970302 -0.000005 -0.000028 -0.000009 37.936768 -4.542674 -0.873426 -23.632629 2.030544 2.389754 42.142967 11.543447 -8.415400 5.868905 0.183546 -0.138353 -8.714086 -7.454507 2.342337 -0.000022 -0.000088 0.000099 2.226896 0.222197 -0.237901 -7.994371 -0.767654 0.587673 -47.450245 15.091757 3.169500 74.043465 -0.678800 0.730554 52.798546 -2.489835 5.006960 -0.000008 0.000044 0.000023 -40.860298 0.110969 -0.297924 -11.850509 -3.259504 -7.200181 28.542946 3.248592 -3.080170 -57.545193 -18.712921 6.027811 -23.323318 -6.135874 2.166849 -34.154613 0.078536 -0.255669 43.141777 4.161309 -7.862530 -53.643829 0.729057 -0.646888 58.603195 0.005128 5.250046 28.275988 -2.345906 4.631751 18.950327 14.497293 -6.419456 -14.109686 -5.259662 3.675061 -12.494639 -3.791155 5.772464 -15.719219 -3.923689 7.532691 0.000057 0.000078 0.000053 
